HIERARCHY
ROOT joint_Root
{
	OFFSET 0.0 0.0 0.0
	CHANNELS 6 Xposition Yposition Zposition Zrotation Xrotation Yrotation 
	JOINT Hips
	{
		OFFSET -17.1583 93.1646 452.98
		CHANNELS 6 Xposition Yposition Zposition Zrotation Xrotation Yrotation 
		JOINT Spine
		{
			OFFSET 15.7357 0.0 0.0
			CHANNELS 6 Xposition Yposition Zposition Zrotation Xrotation Yrotation 
			JOINT Chest
			{
				OFFSET 8.98455 -0.406207 0.0
				CHANNELS 6 Xposition Yposition Zposition Zrotation Xrotation Yrotation 
				JOINT Neck
				{
					OFFSET 16.3773 0.0 0.0
					CHANNELS 6 Xposition Yposition Zposition Zrotation Xrotation Yrotation 
					JOINT Head
					{
						OFFSET 6.45672 0.0 0.0
						CHANNELS 6 Xposition Yposition Zposition Zrotation Xrotation Yrotation 
						End Site
						{
							OFFSET 0.0 0.0 0.0
						}
					}
				}
				JOINT Shoulder_L
				{
					OFFSET 12.9942 -0.242716 4.98039
					CHANNELS 6 Xposition Yposition Zposition Zrotation Xrotation Yrotation 
					JOINT UpperArm_L
					{
						OFFSET 5.34809 0.0 0.0
						CHANNELS 6 Xposition Yposition Zposition Zrotation Xrotation Yrotation 
						JOINT LowerArm_L
						{
							OFFSET 24.3286 1.87007e-05 0.0
							CHANNELS 6 Xposition Yposition Zposition Zrotation Xrotation Yrotation 
							JOINT Hand_L
							{
								OFFSET 22.2916 0.0 0.0
								CHANNELS 6 Xposition Yposition Zposition Zrotation Xrotation Yrotation 
								End Site
								{
									OFFSET 0.0 0.0 0.0
								}
							}
						}
					}
				}
				JOINT Shoulder_R
				{
					OFFSET 12.9945 -0.242716 -4.98039
					CHANNELS 6 Xposition Yposition Zposition Zrotation Xrotation Yrotation 
					JOINT UpperArm_R
					{
						OFFSET -5.34813 0.0 0.0
						CHANNELS 6 Xposition Yposition Zposition Zrotation Xrotation Yrotation 
						JOINT LowerArm_R
						{
							OFFSET -24.3289 0.000322201 0.0
							CHANNELS 6 Xposition Yposition Zposition Zrotation Xrotation Yrotation 
							JOINT Hand_R
							{
								OFFSET -22.2915 -0.000108084 0.0
								CHANNELS 6 Xposition Yposition Zposition Zrotation Xrotation Yrotation 
								End Site
								{
									OFFSET 0.0 0.0 0.0
								}
							}
						}
					}
				}
			}
		}
		JOINT UpperLeg_L
		{
			OFFSET -2.19248 -6.46944 0.0
			CHANNELS 6 Xposition Yposition Zposition Zrotation Xrotation Yrotation 
			JOINT LowerLeg_L
			{
				OFFSET 39.0811 0.0 -1.23785e-05
				CHANNELS 6 Xposition Yposition Zposition Zrotation Xrotation Yrotation 
				JOINT Foot_L
				{
					OFFSET 40.9854 0.0 -1.26872e-05
					CHANNELS 6 Xposition Yposition Zposition Zrotation Xrotation Yrotation 
					JOINT Toes_L
					{
						OFFSET 11.7543 0.0 0.0
						CHANNELS 6 Xposition Yposition Zposition Zrotation Xrotation Yrotation 
						End Site
						{
							OFFSET 0.0 0.0 0.0
						}
					}
				}
			}
		}
		JOINT UpperLeg_R
		{
			OFFSET -2.19251 6.46944 0.0
			CHANNELS 6 Xposition Yposition Zposition Zrotation Xrotation Yrotation 
			JOINT LowerLeg_R
			{
				OFFSET -39.0811 -0.00228153 -0.0401928
				CHANNELS 6 Xposition Yposition Zposition Zrotation Xrotation Yrotation 
				JOINT Foot_R
				{
					OFFSET -40.9854 0.0 0.0
					CHANNELS 6 Xposition Yposition Zposition Zrotation Xrotation Yrotation 
					JOINT Toes_R
					{
						OFFSET -11.7543 0.0 0.0
						CHANNELS 6 Xposition Yposition Zposition Zrotation Xrotation Yrotation 
						End Site
						{
							OFFSET 0.0 0.0 0.0
						}
					}
				}
			}
		}
	}
}
MOTION
Frames:	4
Frame Time:	0.0333333
0.000000 0.000000 0.000000 0.000000 0.000000 -0.000000 -1.516230 92.613800 -1.125960 85.688300 1.542690 1.073480 15.735700 0.000005 -0.000001 63.264000 88.182700 -61.813200 8.984550 -0.406207 -0.000000 -4.496920 -1.788880 2.833370 16.377300 -0.000001 -0.000001 9.556740 1.229580 4.316920 6.456720 -0.000001 -0.000000 8.758650 3.936460 13.972000 12.994200 -0.242716 4.980390 -92.172500 6.433710 -71.296800 5.348090 -0.000007 -0.000001 -73.783200 27.152200 1.326700 24.328600 0.000019 0.000005 13.712300 30.880600 -25.426600 22.291600 -0.000001 0.000005 -3.436390 5.026920 6.741600 12.994500 -0.242716 -4.980390 87.452900 7.600490 -71.410500 -5.348130 -0.000001 -0.000004 -64.336900 -5.119210 -9.070850 -24.328900 0.000322 -0.000009 18.652600 -18.163100 -132.720000 -22.291500 -0.000108 -0.000004 59.285400 5.642550 -14.350800 -2.192480 -6.469440 -0.000000 -175.047000 3.241400 -5.383760 39.081100 -0.000007 -0.000012 0.289106 -0.655177 23.810800 40.985400 -0.000006 -0.000013 1.763790 6.311050 -73.342900 11.754300 -0.000000 0.000003 -0.000172 0.170467 -9.662590 -2.192510 6.469440 -0.000001 -172.767000 9.195810 -179.121000 -39.081100 -0.002282 -0.040193 0.039152 -0.150325 13.402600 -40.985400 0.000008 0.000006 0.310394 0.828647 -69.218100 -11.754300 -0.000006 -0.000006 -0.009264 0.265724 -5.779200
0.000000 0.000000 0.000000 0.000000 0.000000 -0.000000 -1.506080 92.621000 -1.136450 85.675700 1.512260 1.062670 15.735700 0.000005 -0.000001 63.154700 88.174100 -61.716100 8.984550 -0.406207 -0.000000 -4.484720 -1.801390 2.808710 16.377300 -0.000001 -0.000001 9.547450 1.149670 4.213910 6.456720 -0.000001 -0.000000 8.754280 3.807070 14.028600 12.994200 -0.242716 4.980390 -92.187400 6.461880 -71.253600 5.348090 -0.000007 -0.000001 -73.736100 27.237200 1.266980 24.328600 0.000019 0.000005 13.761000 30.987500 -25.439200 22.291600 -0.000001 0.000005 -3.490900 5.027410 6.730960 12.994500 -0.242716 -4.980390 87.480700 7.515480 -71.407700 -5.348130 -0.000001 -0.000004 -65.660300 -6.612180 -9.581080 -24.328900 0.000322 -0.000009 13.581700 -13.424100 -133.859000 -22.291500 -0.000108 -0.000004 58.944000 5.548120 -8.627050 -2.192480 -6.469440 -0.000000 -175.040000 3.202880 -5.390900 39.081100 -0.000007 -0.000012 0.287899 -0.653353 23.781300 40.985400 -0.000006 -0.000013 1.776300 6.335390 -73.303100 11.754300 -0.000000 0.000003 -0.000195 0.170851 -9.647030 -2.192510 6.469440 -0.000001 -172.771000 9.185480 -179.123000 -39.081100 -0.002282 -0.040193 0.038046 -0.146168 13.359500 -40.985400 0.000008 0.000006 0.267199 0.865674 -69.167100 -11.754300 -0.000006 -0.000006 -0.009471 0.267308 -5.714440
0.000000 0.000000 0.000000 0.000000 0.000000 -0.000000 -1.490560 92.625400 -1.145920 85.678900 1.480710 1.068180 15.735700 0.000005 -0.000001 63.576100 88.180300 -62.138600 8.984550 -0.406207 -0.000000 -4.484110 -1.771790 2.807760 16.377300 -0.000001 -0.000001 9.565280 1.086540 4.106240 6.456720 -0.000001 -0.000000 8.728770 3.616030 13.878800 12.994200 -0.242716 4.980390 -92.198900 6.504410 -71.275300 5.348090 -0.000007 -0.000001 -73.707500 27.391600 1.270150 24.328600 0.000019 0.000005 13.777400 31.010900 -25.451600 22.291600 -0.000001 0.000005 -3.568080 5.026840 6.743370 12.994500 -0.242716 -4.980390 87.487400 7.485050 -71.384000 -5.348130 -0.000001 -0.000004 -66.507600 -7.546630 -10.010200 -24.328900 0.000322 -0.000009 6.750300 -6.920710 -135.515000 -22.291500 -0.000108 -0.000004 60.191200 5.452220 -4.760520 -2.192480 -6.469440 -0.000000 -175.062000 3.202760 -5.366820 39.081100 -0.000007 -0.000012 0.290146 -0.659196 23.757400 40.985400 -0.000006 -0.000013 1.774530 6.282570 -73.323900 11.754300 -0.000000 0.000003 -0.000146 0.170040 -9.679950 -2.192510 6.469440 -0.000001 -172.786000 9.156560 -179.106000 -39.081100 -0.002282 -0.040193 0.037823 -0.145452 13.339500 -40.985400 0.000008 0.000006 0.249830 0.906208 -69.158200 -11.754300 -0.000006 -0.000006 -0.009382 0.266625 -5.742350
0.000000 0.000000 0.000000 0.000000 0.000000 -0.000000 -1.475590 92.625800 -1.143270 85.683200 1.439240 1.062720 15.735700 0.000005 -0.000001 63.736500 88.188600 -62.290200 8.984550 -0.406207 -0.000000 -4.494530 -1.756370 2.825750 16.377300 -0.000001 -0.000001 9.530910 1.050110 3.981590 6.456720 -0.000001 -0.000000 8.762510 3.510310 13.666100 12.994200 -0.242716 4.980390 -92.206400 6.524670 -71.270200 5.348090 -0.000007 -0.000001 -73.755900 27.288100 1.279860 24.328600 0.000019 0.000005 13.814300 31.150100 -25.423800 22.291600 -0.000001 0.000005 -3.615450 5.026000 6.761530 12.994500 -0.242716 -4.980390 87.487400 7.485510 -71.384900 -5.348130 -0.000001 -0.000004 -66.810200 -7.721800 -10.239000 -24.328900 0.000322 -0.000009 1.519940 -1.602940 -136.511000 -22.291500 -0.000108 -0.000004 62.513300 5.410190 -3.278520 -2.192480 -6.469440 -0.000000 -175.080000 3.185620 -5.345260 39.081100 -0.000007 -0.000012 0.288637 -0.656751 23.725800 40.985400 -0.000006 -0.000013 1.787900 6.270450 -73.247500 11.754300 -0.000000 0.000003 -0.000024 0.168024 -9.761820 -2.192510 6.469440 -0.000001 -172.787000 9.113100 -179.110000 -39.081100 -0.002282 -0.040193 0.038410 -0.148050 13.328900 -40.985400 0.000008 0.000006 0.296513 0.850884 -69.136400 -11.754300 -0.000006 -0.000006 -0.009385 0.266654 -5.741170
